<?xml version="1.0" encoding="UTF-8"?><svg id="Layer_2" xmlns="http://www.w3.org/2000/svg" viewBox="0 0 1626.97 1626.96"><defs><style>.cls-1{fill:#fff;}</style></defs><path class="cls-1" d="M907.52,1559.28l-166.67-385.25c-4.17-9.64,6.66-18.85,15.5-13.2l182.02,116.34-147.59-200.42c-12.43-16.89-3.52-40.98,16.91-45.72l233.67-54.11-222.24-23.86c-23.1-2.47-34.18-29.65-19.38-47.56l369.9-448.16-448.16,369.87c-17.92,14.8-45.09,3.72-47.58-19.37l-23.86-222.67-54.12,234c-4.72,20.44-28.82,29.36-45.7,16.93l-200.41-147.5,116.45,182.06c5.66,8.85-3.56,19.68-13.2,15.51l-385.38-166.72c-38.18-16.52-37.56-70.9.99-86.54L1522.9,42.97c38.43-15.6,76.69,22.67,61.11,61.11l-589.95,1454.21c-15.64,38.55-70.02,39.17-86.54.99Z"/></svg>