<?xml version="1.0" encoding="UTF-8"?><svg id="Layer_2" xmlns="http://www.w3.org/2000/svg" viewBox="0 0 2033.36 420.16"><defs><style>.cls-1{fill:#0a0a0a;}</style></defs><path class="cls-1" d="M286.65,274.32c0,23.88-10.12,45.32-28.47,60.35-19.91,16.3-49.18,24.91-84.66,24.91-44.8,0-88.85-16.58-112.21-42.23l-4.18-4.59,18.39-30.39,7.5,7.81c19.55,20.36,55.75,34.05,90.08,34.05,25.44,0,45.79-5.17,58.85-14.97,11.02-8.27,16.85-19.91,16.85-33.69,0-32.55-29.29-42.05-77.53-53.84-24.39-5.96-49.6-12.12-69.25-24.41-23.53-14.72-34.98-35.65-34.98-64,0-23.95,9.84-45.43,27.71-60.49,19.56-16.49,48.52-25.2,83.76-25.2s68.55,10.38,92.63,27.78l5.57,4.02-14.93,32.24-8.13-5.61c-21.25-14.66-48.64-23.07-75.13-23.07-46.1,0-73.62,18.66-73.62,49.91s29.49,42.28,78.07,54.18c24.27,5.94,49.36,12.08,68.9,24.2,23.42,14.53,34.8,35.15,34.8,63.04Z"/><path class="cls-1" d="M728.69,79.73c-21.88-18.28-53.5-27.93-91.43-27.93h-112.72v307.79h37.85V87.57h74.87c39.85,0,87.35,12.27,87.35,70.71s-47.5,70.29-87.35,70.29h-44.38l38.73,35.77h5.65c37.91,0,69.52-9.63,91.42-27.87,22.37-18.62,34.19-45.66,34.19-78.2s-11.82-59.87-34.18-78.55Z"/><rect class="cls-1" x="1000.75" y="51.8" width="37.85" height="307.79"/><polygon class="cls-1" points="1522.4 51.8 1522.4 87.57 1417.58 87.57 1417.58 359.59 1379.73 359.59 1379.73 87.57 1274.92 87.57 1274.92 51.8 1522.4 51.8"/><polygon class="cls-1" points="1976.24 323.82 1976.24 359.59 1758.71 359.59 1758.71 51.8 1970 51.8 1970 51.81 1931.27 87.57 1796.56 87.57 1796.56 185.73 1951.7 185.73 1951.7 221.08 1796.56 221.08 1796.56 323.82 1976.24 323.82"/></svg>