<?xml version="1.0" encoding="UTF-8"?><svg id="Layer_2" xmlns="http://www.w3.org/2000/svg" viewBox="0 0 2800.46 529.37"><defs><style>.cls-1{fill:#f9f9f9;}</style></defs><g id="Layer_1"><path class="cls-1" d="M882.37,338.05c0,23.88-10.12,45.32-28.47,60.35-19.91,16.3-49.18,24.91-84.66,24.91-44.8,0-88.85-16.58-112.21-42.23l-4.18-4.59,18.39-30.39,7.5,7.81c19.55,20.36,55.75,34.05,90.08,34.05,25.44,0,45.79-5.17,58.85-14.97,11.02-8.27,16.85-19.91,16.85-33.69,0-32.55-29.29-42.05-77.53-53.84-24.39-5.96-49.6-12.12-69.25-24.41-23.53-14.72-34.98-35.65-34.98-64,0-23.95,9.84-45.43,27.71-60.49,19.56-16.49,48.52-25.2,83.76-25.2s68.55,10.38,92.63,27.78l5.57,4.02-14.93,32.24-8.13-5.61c-21.25-14.66-48.64-23.07-75.13-23.07-46.1,0-73.62,18.66-73.62,49.91s29.49,42.28,78.07,54.18c24.27,5.94,49.36,12.08,68.9,24.2,23.42,14.53,34.8,35.15,34.8,63.04h-.02Z"/><path class="cls-1" d="M1365.39,143.46c-21.88-18.28-53.5-27.93-91.43-27.93h-112.72v307.79h37.85V151.3h74.87c39.85,0,87.35,12.27,87.35,70.71s-47.5,70.29-87.35,70.29h-44.38l38.73,35.77h5.65c37.91,0,69.52-9.63,91.42-27.87,22.37-18.62,34.19-45.66,34.19-78.2s-11.82-59.87-34.18-78.55h0Z"/><rect class="cls-1" x="1678.43" y="115.53" width="37.85" height="307.79"/><polygon class="cls-1" points="2234.16 115.53 2234.16 151.3 2129.35 151.3 2129.35 423.32 2091.5 423.32 2091.5 151.3 1986.68 151.3 1986.68 115.53 2234.16 115.53"/><polygon class="cls-1" points="2722.09 387.55 2722.09 423.32 2504.56 423.32 2504.56 115.53 2715.85 115.53 2715.85 115.53 2677.12 151.3 2542.41 151.3 2542.41 249.46 2697.55 249.46 2697.55 284.81 2542.41 284.81 2542.41 387.55 2722.09 387.55"/></g><path class="cls-1" d="M273.35,461.66l-42.96-99.3c-1.07-2.48,1.72-4.86,4-3.4l46.92,29.99-38.04-51.66c-3.2-4.35-.91-10.56,4.36-11.78l60.23-13.95-57.29-6.15c-5.95-.64-8.81-7.64-5-12.26l95.35-115.52-115.52,95.34c-4.62,3.81-11.62.96-12.26-4.99l-6.15-57.4-13.95,60.32c-1.22,5.27-7.43,7.57-11.78,4.36l-51.66-38.02,30.02,46.93c1.46,2.28-.92,5.07-3.4,4l-99.34-42.97c-9.84-4.26-9.68-18.28.26-22.31L431.97,70.81c9.91-4.02,19.77,5.84,15.75,15.75l-152.07,374.84c-4.03,9.94-18.05,10.1-22.31.26h0Z"/></svg>